<?xml version="1.0" encoding="UTF-8" standalone="no"?>
<svg width="40px" height="40px" viewBox="0 0 40 40" version="1.1" xmlns="http://www.w3.org/2000/svg" xmlns:xlink="http://www.w3.org/1999/xlink" xmlns:sketch="http://www.bohemiancoding.com/sketch/ns">
    <!-- Generator: Sketch 3.3 (11970) - http://www.bohemiancoding.com/sketch -->
    <title>angel icon</title>
    <desc>Created with Sketch.</desc>
    <defs></defs>
    <g id="artifacts" stroke="none" stroke-width="1" fill="none" fill-rule="evenodd" sketch:type="MSPage">
        <g id="angle-icon" sketch:type="MSArtboardGroup">
            <g id="angel-icon" sketch:type="MSLayerGroup">
                <ellipse id="Oval-40" fill="#4FC1E9" sketch:type="MSShapeGroup" cx="20" cy="19.9689922" rx="20" ry="19.9689922"></ellipse>
                <path d="M13.0761008,22.1431913 C12.9227997,21.681745 12.7672901,21.2313778 12.6239269,20.777133 C12.4617921,20.2639841 12.5464481,19.773732 12.8110904,19.317456 C13.1870739,18.6696955 13.7078928,18.1620861 14.356432,17.7909348 C14.8899494,17.4858891 15.4477594,17.491798 16.0077778,17.7034096 C16.2814378,17.8066303 16.5442397,17.9384721 16.8313343,18.0660668 C16.8107224,18.0023618 16.7926869,17.9425344 16.772259,17.8834456 C15.9777801,15.5987418 15.1678422,13.3184696 14.5198551,10.9861255 C14.3137359,10.2445616 14.1357741,9.48933336 14.0229607,8.72875023 C13.8980009,7.88618145 14.0323465,7.07204913 14.6155533,6.39603679 C15.0690154,5.87051613 15.6663929,5.67644648 16.3399609,5.69011076 C16.6491397,5.69657359 16.9147021,5.84429549 17.1186129,6.05978481 C17.4149092,6.37277059 17.708997,6.69572759 17.9500828,7.05136806 C18.6602738,8.09908563 19.1923189,9.24522292 19.6395238,10.4234897 C20.3226616,12.2227425 20.9557419,14.0410144 21.6099862,15.8513463 C21.6285737,15.9028643 21.6467932,15.9545669 21.6812077,16.0515094 C21.7145181,15.9639842 21.7343939,15.9130202 21.7533495,15.8618714 C22.3494387,14.248933 22.9243639,12.6276851 23.5480585,11.0256411 C23.9994962,9.86639351 24.5374304,8.74222985 25.2430205,7.7115003 C25.4706717,7.37894138 25.7362342,7.06872539 26.0097102,6.77180437 C26.9412952,5.76027866 28.2957925,6.29096959 28.8153232,7.02108507 C29.1256062,7.45704933 29.2671291,7.9445316 29.293262,8.47079086 C29.3295169,9.20312218 29.1528434,9.90609377 28.977274,10.6059263 C28.3810007,12.9829563 27.5670141,15.2907417 26.7522913,17.5981577 C26.7285507,17.6659251 26.7057304,17.7340619 26.6759167,17.8204792 C26.8082379,17.8537166 26.9346699,17.8839996 27.0605498,17.9170524 C27.840306,18.1223858 28.5317253,18.47341 29.0251231,19.1396357 C29.3900644,19.6326576 29.5895583,20.2017562 29.6817599,20.7974448 C30.0995192,23.4996476 29.8779411,26.1344523 28.6106763,28.5890363 C27.1556959,31.4073855 24.89317,33.2544632 21.7596066,33.9101638 C19.2265494,34.4403008 16.7731792,34.1875117 14.5156223,32.8539522 C12.6296319,31.7399445 11.2044652,30.1846175 10.4596757,28.0817963 C10.0341868,26.8802633 9.96811826,25.6456775 10.319625,24.4097992 C10.6214424,23.3482327 11.3623672,22.7100741 12.3740074,22.3564648 C12.6084679,22.2744791 12.8495537,22.2115126 13.0761008,22.1431913 L13.0761008,22.1431913 Z M18.0697056,27.5359639 C18.0840603,27.6094555 18.093262,27.6679903 18.1070647,27.7256018 C18.398208,28.9300893 17.6950104,29.596315 17.0275155,29.8808644 C16.5260203,30.0948765 16.0020727,30.0860131 15.4994732,29.9052385 C14.219326,29.4445308 13.2939982,28.5738949 12.693308,27.3562971 C12.5468162,27.0593761 12.4906855,26.7329107 12.5055924,26.4003518 C12.5147941,26.1894787 12.5453439,25.9804523 12.724594,25.8094642 C12.9005314,26.0345554 13.0656108,26.2566922 13.2419163,26.469781 C13.6272855,26.935105 14.0025328,27.4102156 14.4121946,27.8533813 C14.703706,28.1687675 15.0682793,28.3999523 15.4924799,28.5127749 C15.9071107,28.623197 16.2821739,28.5556143 16.6020267,28.2524151 C16.7890062,28.0753334 16.8644606,27.8648297 16.7687624,27.6192421 C16.6822659,27.3974746 16.5898804,27.176261 16.4768829,26.9674192 C16.1029239,26.2757114 15.6257212,25.6549101 15.1330596,25.0459266 C14.7416172,24.5621374 14.3413412,24.0868422 13.8543847,23.6931633 C13.3803106,23.309825 12.9767219,23.288036 12.4185438,23.6898396 C11.9833011,24.0031946 11.6993352,24.4398975 11.5331516,24.950092 C11.3320014,25.5670156 11.3526133,26.1918792 11.519533,26.8078795 C11.9709708,28.4745519 12.9045802,29.8415334 14.1961376,30.9568337 C15.4961606,32.0793355 17.0330366,32.6598826 18.7366483,32.8040961 C20.0677732,32.916734 21.3709248,32.7900625 22.6260433,32.3107049 C24.5698206,31.5684024 25.9999563,30.2197015 27.0704877,28.4632881 C27.845827,27.1908486 28.2659789,25.7939534 28.4229607,24.317473 C28.5392708,23.2250695 28.545528,22.1321121 28.3638855,21.0428478 C28.2282517,20.2283461 27.8272395,19.6193626 27.0559489,19.2842186 C26.8579273,19.1981705 26.6650587,19.0982736 26.4618841,19.0269978 C24.1988061,18.2328079 21.861378,17.9201915 19.472052,17.9567526 C19.324824,17.9591531 19.1750196,17.9949757 19.0318404,18.0346759 C18.7265264,18.1198007 18.5367863,18.3242109 18.4841523,18.6394125 C18.3586405,19.3889165 18.5805866,20.0119336 19.1796204,20.4861209 C19.5600207,20.7874735 20.003361,20.9606775 20.4658408,21.0864257 C21.5268024,21.3750374 22.6146331,21.452776 23.7066966,21.4860135 C24.2880631,21.5037401 24.8703497,21.496908 25.4522683,21.5020782 C25.7864757,21.5052173 25.9624132,21.6267186 26.0864527,21.9374885 C26.1009915,21.9734957 26.114058,22.0102416 26.1251001,22.0473567 C26.2064435,22.3210115 26.2108604,22.3560955 25.961677,22.4873833 C25.5707868,22.6932707 25.1758477,22.90082 24.7626892,23.0533428 C23.129931,23.6567868 21.9397769,24.7501135 21.1346239,26.2829128 C20.6283437,27.2467982 20.5072487,28.2490913 20.8388797,29.2979168 C20.9759858,29.7314806 21.1084909,30.1672602 21.2198321,30.6080254 C21.2582954,30.7598097 21.2259052,30.9295052 21.2259052,31.1008626 C20.9158063,31.0812894 20.666991,30.9852702 20.4448608,30.8188984 C20.1386267,30.5897448 19.9382126,30.2787902 19.7828871,29.9358908 C19.5268944,29.3715931 19.4197861,28.7720268 19.3850035,28.158427 C19.3715689,27.9180096 19.3827951,27.676115 19.3827951,27.4347744 C19.3664159,27.4292348 19.3498528,27.4235106 19.3332896,27.4177863 C18.9427674,27.7484987 18.5130458,27.6419543 18.0697056,27.5359639 L18.0697056,27.5359639 Z M20.4593996,16.8233564 C20.4444928,16.7655602 20.4387877,16.733246 20.4281137,16.7025937 C19.6557189,14.4705158 18.8960226,12.2336369 18.1028319,10.0089451 C17.8356131,9.25870255 17.4991972,8.53172615 17.161677,7.80955071 C17.0525443,7.57615011 16.8659328,7.36084544 16.6684633,7.19170387 C16.2011985,6.79100822 15.555972,6.95294835 15.3340258,7.52795584 C15.2471613,7.75304709 15.2188199,8.01562276 15.2256292,8.25954855 C15.2447688,8.95236426 15.429724,9.61877468 15.6132068,10.2818614 C16.1859236,12.3527377 16.9274005,14.3667412 17.6690614,16.3803753 C17.7542696,16.6115601 17.8427904,16.8412676 17.9399609,17.0986731 C18.124732,16.7973204 18.4015206,16.728999 18.6978169,16.7201357 C18.9186589,16.7134882 19.1407891,16.7234594 19.361631,16.737493 C19.7199471,16.7605746 20.077527,16.7928887 20.4593996,16.8233564 L20.4593996,16.8233564 Z M22.814127,17.0597114 C22.8640005,17.0713445 22.8901334,17.0789152 22.9166345,17.0835316 C23.6362112,17.2090952 24.3570762,17.328196 25.0746285,17.4646541 C25.2275616,17.4938291 25.2857166,17.4629922 25.3365103,17.3182247 C25.7704647,16.0775454 26.2222706,14.8431443 26.6488636,13.5998799 C27.1293789,12.199107 27.6017967,10.7950103 27.9475984,9.35250595 C28.0368553,8.98043142 28.0764228,8.60780293 27.961585,8.23369722 C27.7630113,7.58649064 27.0883391,7.36435384 26.5840833,7.81195119 C26.3321394,8.03556522 26.1107454,8.31734474 25.9469542,8.61260389 C25.6789993,9.0960238 25.43,9.59753965 25.2421003,10.1165975 C24.6134369,11.8530684 24.0149552,13.6006185 23.4063515,15.3442908 C23.2092501,15.9089578 23.0158293,16.4749173 22.814127,17.0597114 L22.814127,17.0597114 Z M15.3607109,18.9184222 C15.2210283,18.9651393 15.0695675,18.9909906 14.9440557,19.0626357 C14.5601587,19.2814488 14.2515321,19.5887103 14.0662089,19.9908832 C13.9868898,20.1631639 13.9429055,20.3817923 13.9697746,20.5668139 C14.0098942,20.8421306 14.0963906,21.1209557 14.2160134,21.3728216 C14.9700046,22.9599087 16.0018887,24.3475713 17.2755947,25.5507662 C17.5183368,25.7802891 17.8056154,25.9739894 18.0991512,26.1351909 C18.6039591,26.4123542 19.0504279,26.254661 19.3279526,25.7461284 C19.4549368,25.5129124 19.4681873,25.2706485 19.3945733,25.0206292 C18.8623442,23.210482 18.0704417,21.5255291 16.9423074,20.0121182 C16.714104,19.7061492 16.403453,19.4568685 16.1080769,19.2086957 C15.9030619,19.0365997 15.6463331,18.9479666 15.3607109,18.9184222 L15.3607109,18.9184222 Z M20.6368093,24.6027609 C20.9316333,24.2943914 21.2345549,23.9479836 21.5691305,23.6359211 C21.9007615,23.326813 22.2644146,23.0520503 22.6256752,22.7525441 C21.6182678,22.6962251 20.6390177,22.5483186 19.7114815,22.2102201 C20.0241569,23.0188128 20.3342558,23.8205734 20.6368093,24.6027609 L20.6368093,24.6027609 Z" id="Imported-Layers" fill="#FFFFFF" sketch:type="MSShapeGroup"></path>
            </g>
        </g>
    </g>
</svg>