<?xml version="1.0" encoding="UTF-8" standalone="no"?>
<svg width="20px" height="20px" viewBox="0 0 20 20" version="1.1" xmlns="http://www.w3.org/2000/svg" xmlns:xlink="http://www.w3.org/1999/xlink" xmlns:sketch="http://www.bohemiancoding.com/sketch/ns">
    <!-- Generator: Sketch 3.3 (11970) - http://www.bohemiancoding.com/sketch -->
    <title>icon_close</title>
    <desc>Created with Sketch.</desc>
    <defs></defs>
    <g id="Page-1" stroke="none" stroke-width="1" fill="none" fill-rule="evenodd" sketch:type="MSPage">
        <g id="mobile_app_contact" sketch:type="MSArtboardGroup" transform="translate(-285.000000, -3089.000000)" fill="#7A8085">
            <g id="icon_close" sketch:type="MSLayerGroup" transform="translate(285.000000, 3089.000000)">
                <path d="M10.1057546,9.11499546 L1.68275375,0.691994568 C1.41344306,0.422683876 0.967133023,0.419951837 0.69354243,0.69354243 C0.418044414,0.969040446 0.419258835,1.41001802 0.691994568,1.68275375 L9.11499546,10.1057546 L0.691994568,18.5287555 C0.422683876,18.7980662 0.419951837,19.2443763 0.69354243,19.5179669 C0.969040446,19.7934649 1.41001802,19.7922504 1.68275375,19.5195147 L10.1057546,11.0965138 L18.5287555,19.5195147 C18.7980662,19.7888254 19.2443763,19.7915574 19.5179669,19.5179669 C19.7934649,19.2424688 19.7922504,18.8014913 19.5195147,18.5287555 L11.0965138,10.1057546 L19.5195147,1.68275375 C19.7888254,1.41344306 19.7915574,0.967133023 19.5179669,0.69354243 C19.2424688,0.418044414 18.8014913,0.419258835 18.5287555,0.691994568 L10.1057546,9.11499546 Z" id="Oval-43" sketch:type="MSShapeGroup"></path>
            </g>
        </g>
    </g>
</svg>