<?xml version="1.0" encoding="UTF-8" standalone="no"?>
<svg width="40px" height="40px" viewBox="0 0 40 40" version="1.1" xmlns="http://www.w3.org/2000/svg" xmlns:xlink="http://www.w3.org/1999/xlink" xmlns:sketch="http://www.bohemiancoding.com/sketch/ns">
    <!-- Generator: Sketch 3.3 (11970) - http://www.bohemiancoding.com/sketch -->
    <title>contact icon</title>
    <desc>Created with Sketch.</desc>
    <defs></defs>
    <g id="artifacts" stroke="none" stroke-width="1" fill="none" fill-rule="evenodd" sketch:type="MSPage">
        <g id="contact-icon" sketch:type="MSArtboardGroup">
            <circle id="Oval-41" fill="#4FC1E9" sketch:type="MSShapeGroup" cx="20" cy="20" r="20"></circle>
            <path d="M10.3196637,13 C9.59206799,13 9,13.5412418 9,14.206933 L9,26.793067 C9,27.4583057 9.59206799,28 10.3196637,28 L29.680831,28 C30.4084266,28 31,27.4583057 31,26.793067 L31,14.206933 C31,13.5412418 30.4084266,13 29.680831,13 L10.3196637,13 Z M20.0222582,23.097146 C19.6577184,23.097146 19.0419084,22.5568093 18.6100994,22.1499728 C17.8206754,21.4068968 12.5748702,15.7069459 10.9292476,14.0117187 L29.3095705,14.0117187 C27.7114321,15.6530933 21.6916228,21.7711941 21.0530599,22.3988717 C20.5638743,22.8794726 20.2458294,23.0948832 20.0222582,23.097146 Z M9.99707031,25.9418946 L9.99707031,15.267756 C11.2400668,16.5470959 13.7731463,18.9427985 15.5162103,20.7194835 L9.99707031,25.9418946 Z M17.723234,22.9383033 C18.5680561,23.7343269 19.2481676,24.2285042 20.0178066,24.2285042 C20.7434237,24.2212635 21.3162013,23.7999457 21.9582265,23.1695529 C22.1506363,22.9803898 22.790683,22.32918 23.6369891,21.4643698 L29.1149905,27.0043945 L11.0749707,27.0043945 L16.3476775,21.5643818 C17.0114663,22.2373137 17.5154908,22.7428046 17.723234,22.9383033 Z M30.0625001,15.291438 L30.0625001,26.0026852 L24.4654886,20.6167562 C26.2931337,18.7463947 28.9159558,16.4694081 30.0625001,15.291438 Z" fill="#FFFFFF" sketch:type="MSShapeGroup"></path>
        </g>
    </g>
</svg>