<?xml version="1.0" encoding="UTF-8" standalone="no"?>
<svg width="235px" height="242px" viewBox="0 0 235 242" version="1.1" xmlns="http://www.w3.org/2000/svg" xmlns:xlink="http://www.w3.org/1999/xlink" xmlns:sketch="http://www.bohemiancoding.com/sketch/ns">
    <!-- Generator: Sketch 3.2.2 (9983) - http://www.bohemiancoding.com/sketch -->
    <title>Share anim</title>
    <desc>Created with Sketch.</desc>
    <defs></defs>
    <g id="Page-1" stroke="none" stroke-width="1" fill="none" fill-rule="evenodd" sketch:type="MSPage">
        <g id="web_features" sketch:type="MSArtboardGroup" transform="translate(-168.000000, -1451.000000)" stroke="#4FC1E9">
            <g id="Share" sketch:type="MSLayerGroup" transform="translate(168.000000, 1437.000000)">
                <g id="Share-anim" transform="translate(0.000000, 14.000000)" sketch:type="MSShapeGroup">
                    <rect id="Rectangle-82" stroke-width="3" x="0.5" y="0.5" width="94.3063489" height="69.8618905" rx="8"></rect>
                    <rect id="Rectangle-82" stroke-width="3" x="8.83616213" y="171.291687" width="94.3063489" height="69.8618905" rx="8"></rect>
                    <rect id="Rectangle-82" stroke-width="3" x="104.405938" y="0.5" width="94.3063489" height="69.8618905" rx="8"></rect>
                    <rect id="Rectangle-82" stroke-width="3" x="35.6038214" y="86.0760049" width="94.3063489" height="69.8618905" rx="8"></rect>
                    <rect id="Rectangle-82" stroke-width="3" x="140.193651" y="86.0760049" width="94.3063489" height="69.8618905" rx="8"></rect>
                    <rect id="Rectangle-82" stroke-width="3" x="112.41308" y="171.638109" width="94.3063489" height="69.8618905" rx="8"></rect>
                    <path d="M92.2650729,132.431205 C92.2650729,127.389625 97.3999944,124.299624 97.3999944,117.469095 C97.3999944,110.638567 96.7374239,105.271723 95.9092107,104.295933 C93.7558565,98.6038259 89.2835055,97.4654045 85.8050102,97.4654045 C81.6639444,97.4654045 78.0198065,99.0917208 78.0198065,99.0917208 C74.210026,100.555406 71.7253866,102.669617 70.4002455,105.596986 C68.2468913,110.475935 69.5720323,115.192252 71.2284587,119.258043 C73.8787408,126.251203 77.357236,126.251203 77.357236,131.455416 C77.357236,137.310154 68.9094618,139.424365 68.9094618,139.424365 C64.768396,140.725419 52.4075836,143.327525 52.4075836,151.947001 L52.4075836,154.711739 L114.013735,154.711739 L114.013735,151.947001 C113.848093,145.116473 108.050601,142.83963 103.909535,140.88805 C101.921823,140.074892 93.2589286,136.822259 92.5963581,135.195943 C92.2650722,134.323784 92.2650729,133.406995 92.2650729,132.431205 Z" id="Shape" stroke-width="2" stroke-linecap="round" stroke-linejoin="round"></path>
                    <path d="M56.8335531,46.7737187 C56.8335531,41.7321381 61.9684747,38.6421371 61.9684747,31.8116086 C61.9684747,24.98108 61.3059042,19.6142362 60.477691,18.6384464 C58.3243368,12.9463393 53.8519858,11.8079179 50.3734905,11.8079179 C46.2324247,11.8079179 42.5882868,13.4342342 42.5882868,13.4342342 C38.7785063,14.8979189 36.2938668,17.0121301 34.9687258,19.9394995 C32.8153716,24.8184484 34.1405126,29.5347657 35.7969389,33.6005565 C38.447221,40.5937167 41.9257163,40.5937167 41.9257163,45.7979289 C41.9257163,51.6526676 33.4779421,53.7668788 33.4779421,53.7668788 C29.3368763,55.0679319 16.9760638,57.670038 16.9760638,66.2895145 L16.9760638,69.0542522 L78.5822155,69.0542522 L78.5822155,66.2895145 C78.4165729,59.4589859 72.6190808,57.1821431 68.478015,55.2305635 C66.4903034,54.4174054 57.8274089,51.1647727 57.1648384,49.5384564 C56.8335525,48.6662973 56.8335531,47.7495085 56.8335531,46.7737187 Z" id="Shape" stroke-width="2" stroke-linecap="round" stroke-linejoin="round"></path>
                    <path d="M65.04375,217.459554 C65.04375,212.417973 70.1786716,209.327972 70.1786716,202.497444 C70.1786716,195.666915 69.5161011,190.300071 68.6878879,189.324282 C66.5345337,183.632175 62.0621827,182.493753 58.5836874,182.493753 C54.4426216,182.493753 50.7984837,184.120069 50.7984837,184.120069 C46.9887032,185.583754 44.5040637,187.697965 43.1789227,190.625335 C41.0255685,195.504284 42.3507095,200.220601 44.0071358,204.286392 C46.6574179,211.279552 50.1359132,211.279552 50.1359132,216.483764 C50.1359132,222.338503 41.688139,224.452714 41.688139,224.452714 C37.5470732,225.753767 25.1862607,228.355873 25.1862607,236.97535 L25.1862607,239.740087 L86.7924124,239.740087 L86.7924124,236.97535 C86.6267698,230.144821 80.8292777,227.867978 76.6882119,225.916399 C74.7005003,225.103241 66.0376058,221.850608 65.3750353,220.224292 C65.0437494,219.352133 65.04375,218.435344 65.04375,217.459554 Z" id="Shape" stroke-width="2" stroke-linecap="round" stroke-linejoin="round"></path>
                    <g id="Group" transform="translate(122.279602, 19.582111)" stroke-width="2" stroke-linecap="square">
                        <path d="M0.358175301,0.706744868 L57.8271771,0.706744868" id="Line"></path>
                        <path d="M0.358175301,11.3079179 L57.8271771,11.3079179" id="Line"></path>
                        <path d="M0.358175301,21.9090909 L57.8271771,21.9090909" id="Line-4"></path>
                        <path d="M0.358175301,32.5102639 L57.8271771,32.5102639" id="Line-5"></path>
                    </g>
                    <g id="Group" transform="translate(191.049260, 106.511730)" stroke-width="2" stroke-linecap="square">
                        <path d="M0.168032857,0.55637362 L27.1287991,0.55637362" id="Line"></path>
                        <path d="M0.168032857,8.90197791 L27.1287991,8.90197791" id="Line"></path>
                        <path d="M0.168032857,17.2475822 L27.1287991,17.2475822" id="Line-4"></path>
                        <path d="M0.168032857,25.5931865 L27.1287991,25.5931865" id="Line-5"></path>
                    </g>
                    <g id="Group" transform="translate(128.010407, 211.109971)" stroke-width="2" stroke-linecap="square">
                        <path d="M0.380284887,0.449378693 L61.3967559,0.449378693" id="Line"></path>
                        <path d="M0.380284887,7.19005908 L61.3967559,7.19005908" id="Line"></path>
                        <path d="M0.380284887,13.9307395 L61.3967559,13.9307395" id="Line-4"></path>
                    </g>
                    <g id="Oval-19-+-Oval-19-+-Oval-19" transform="translate(128.726758, 187.080645)" stroke-width="2">
                        <ellipse id="Oval-19" cx="7.55810272" cy="7.42082111" rx="7.52168131" ry="7.42082111"></ellipse>
                        <ellipse id="Oval-19" cx="30.0867252" cy="7.42082111" rx="7.52168131" ry="7.42082111"></ellipse>
                        <ellipse id="Oval-19" cx="52.6153478" cy="7.42082111" rx="7.52168131" ry="7.42082111"></ellipse>
                    </g>
                    <path d="M94.700104,37.0038573 L105.803538,37.0038573" id="Line" stroke-width="2" stroke-linecap="square"></path>
                    <path d="M130.517634,120.86407 L141.621068,120.86407" id="Line" stroke-width="2" stroke-linecap="square"></path>
                    <path d="M102.579961,207.684055 L113.683395,207.684055" id="Line" stroke-width="2" stroke-linecap="square"></path>
                    <g id="image" transform="translate(154.515379, 105.804985)" stroke-width="2" stroke-linecap="round" stroke-linejoin="round">
                        <rect id="Rectangle-path" x="0.564126098" y="0.353372434" width="29.800185" height="34.2771261"></rect>
                        <ellipse id="Oval" cx="22.4844545" cy="8.5516129" rx="2.22068686" ry="2.19090909"></ellipse>
                        <path d="M4.93386476,29.8246334 L26.0662075,29.8246334 L20.4070377,22.9692082 L17.6849055,25.5134897 L11.8108305,20.0715543 L4.93386476,29.8246334 Z" id="Shape"></path>
                    </g>
                </g>
            </g>
        </g>
    </g>
</svg>