<?xml version="1.0" encoding="UTF-8" standalone="no"?>
<svg width="478px" height="112px" viewBox="0 0 478 112" version="1.1" xmlns="http://www.w3.org/2000/svg" xmlns:xlink="http://www.w3.org/1999/xlink" xmlns:sketch="http://www.bohemiancoding.com/sketch/ns">
    <!-- Generator: Sketch 3.2.2 (9983) - http://www.bohemiancoding.com/sketch -->
    <title>Interact anim</title>
    <desc>Created with Sketch.</desc>
    <defs></defs>
    <g id="Page-1" stroke="none" stroke-width="1" fill="none" fill-rule="evenodd" sketch:type="MSPage">
        <g id="web_features" sketch:type="MSArtboardGroup" transform="translate(-540.000000, -1189.000000)">
            <g id="Interact" sketch:type="MSLayerGroup" transform="translate(83.000000, 1163.000000)">
                <g id="Interact-anim" transform="translate(457.000000, 26.000000)" sketch:type="MSShapeGroup">
                    <rect id="Rectangle-83" stroke="#4FC1E9" stroke-width="3" x="0.4130804" y="0.638109481" width="145.408412" height="110.447828" rx="8"></rect>
                    <rect id="Rectangle-83" stroke="#4FC1E9" stroke-width="3" x="166.004669" y="0.638109481" width="145.408412" height="110.447828" rx="8"></rect>
                    <rect id="Rectangle-83" stroke="#4FC1E9" stroke-width="3" x="331.596257" y="0.638109481" width="145.408412" height="110.447828" rx="8"></rect>
                    <path d="M105.04178,28.1349754 C104.401215,27.7683594 103.646505,27.5864834 102.7784,27.5864834 C101.910295,27.5864834 101.156335,27.7683594 100.519525,28.1349754 C99.8804612,28.4987272 99.562056,29.0235895 99.562056,29.7045501 L99.562056,67.0449625 L80.4817712,31.459581 C79.7646084,30.0962277 79.0354303,29.1095151 78.2964898,28.4987272 C77.5537945,27.8915194 76.6488928,27.5864834 75.5735241,27.5864834 C73.4295453,27.5864834 72.3571804,28.2925057 72.3571804,29.7045501 L72.3016097,67.0449625 L53.2213249,31.459581 C52.5049131,30.0962277 51.775735,29.1095151 51.0375455,28.4987272 C50.2948502,27.8915194 49.3891975,27.5864834 48.3153307,27.5864834 C46.16985,27.5864834 45.0967342,28.2925057 45.0967342,29.7045501 L45.0967342,78.8088966 C45.0967342,79.4905732 45.4151394,80.0261763 46.0564557,80.4157058 C46.6932662,80.8073834 47.4464749,81 48.3153307,81 C49.1834356,81 49.9373952,80.8073834 50.5772096,80.4157058 C51.2140201,80.0261763 51.5346782,79.4905732 51.5346782,78.8088966 L51.5346782,41.4699163 L71.4597883,78.2246023 C72.5321531,80.0748674 73.8846245,81 75.5194553,81 C76.3875602,81 77.1415198,80.8073834 77.7820851,80.4157058 C78.4188956,80.0261763 78.7403047,79.4905732 78.7403047,78.8088966 L78.7936226,41.4699163 L98.7187326,78.2246023 C99.7910975,80.0748674 101.14432,81 102.7784,81 C103.646505,81 104.401215,80.8073834 105.04178,80.4157058 C105.67784,80.0261763 106,79.4905732 106,78.8088966 L106,29.7045501 C106,29.0235895 105.67784,28.4987272 105.04178,28.1349754" id="Connecter-Logo-3" fill="#4FC1E9"></path>
                    <path d="M267.179619,28.1349754 C266.539053,27.7683594 265.784343,27.5864834 264.916238,27.5864834 C264.048133,27.5864834 263.294173,27.7683594 262.657363,28.1349754 C262.018299,28.4987272 261.699894,29.0235895 261.699894,29.7045501 L261.699894,67.0449625 L242.619609,31.459581 C241.902447,30.0962277 241.173269,29.1095151 240.434328,28.4987272 C239.691633,27.8915194 238.786731,27.5864834 237.711362,27.5864834 C235.567384,27.5864834 234.495019,28.2925057 234.495019,29.7045501 L234.439448,67.0449625 L215.359163,31.459581 C214.642751,30.0962277 213.913573,29.1095151 213.175384,28.4987272 C212.432688,27.8915194 211.527036,27.5864834 210.453169,27.5864834 C208.307688,27.5864834 207.234572,28.2925057 207.234572,29.7045501 L207.234572,78.8088966 C207.234572,79.4905732 207.552978,80.0261763 208.194294,80.4157058 C208.831104,80.8073834 209.584313,81 210.453169,81 C211.321274,81 212.075233,80.8073834 212.715048,80.4157058 C213.351858,80.0261763 213.672516,79.4905732 213.672516,78.8088966 L213.672516,41.4699163 L233.597627,78.2246023 C234.669991,80.0748674 236.022463,81 237.657294,81 C238.525398,81 239.279358,80.8073834 239.919923,80.4157058 C240.556734,80.0261763 240.878143,79.4905732 240.878143,78.8088966 L240.931461,41.4699163 L260.856571,78.2246023 C261.928936,80.0748674 263.282158,81 264.916238,81 C265.784343,81 266.539053,80.8073834 267.179619,80.4157058 C267.815678,80.0261763 268.137838,79.4905732 268.137838,78.8088966 L268.137838,29.7045501 C268.137838,29.0235895 267.815678,28.4987272 267.179619,28.1349754" id="Connecter-Logo-3" fill="#4FC1E9"></path>
                    <path d="M431.362795,29.1349754 C430.72223,28.7683594 429.96752,28.5864834 429.099415,28.5864834 C428.23131,28.5864834 427.47735,28.7683594 426.84054,29.1349754 C426.201476,29.4987272 425.883071,30.0235895 425.883071,30.7045501 L425.883071,68.0449625 L406.802786,32.459581 C406.085623,31.0962277 405.356445,30.1095151 404.617505,29.4987272 C403.87481,28.8915194 402.969908,28.5864834 401.894539,28.5864834 C399.75056,28.5864834 398.678195,29.2925057 398.678195,30.7045501 L398.622625,68.0449625 L379.54234,32.459581 C378.825928,31.0962277 378.09675,30.1095151 377.35856,29.4987272 C376.615865,28.8915194 375.710212,28.5864834 374.636346,28.5864834 C372.490865,28.5864834 371.417749,29.2925057 371.417749,30.7045501 L371.417749,79.8088966 C371.417749,80.4905732 371.736154,81.0261763 372.377471,81.4157058 C373.014281,81.8073834 373.76749,82 374.636346,82 C375.504451,82 376.25841,81.8073834 376.898225,81.4157058 C377.535035,81.0261763 377.855693,80.4905732 377.855693,79.8088966 L377.855693,42.4699163 L397.780803,79.2246023 C398.853168,81.0748674 400.20564,82 401.84047,82 C402.708575,82 403.462535,81.8073834 404.1031,81.4157058 C404.739911,81.0261763 405.06132,80.4905732 405.06132,79.8088966 L405.114638,42.4699163 L425.039748,79.2246023 C426.112112,81.0748674 427.465335,82 429.099415,82 C429.96752,82 430.72223,81.8073834 431.362795,81.4157058 C431.998855,81.0261763 432.321015,80.4905732 432.321015,79.8088966 L432.321015,30.7045501 C432.321015,30.0235895 431.998855,29.4987272 431.362795,29.1349754" id="Connecter-Logo-3" fill="#4FC1E9"></path>
                </g>
            </g>
        </g>
    </g>
</svg>