<?xml version="1.0" encoding="UTF-8" standalone="no"?>
<svg width="182px" height="172px" viewBox="0 0 182 172" version="1.1" xmlns="http://www.w3.org/2000/svg" xmlns:xlink="http://www.w3.org/1999/xlink" xmlns:sketch="http://www.bohemiancoding.com/sketch/ns">
    <!-- Generator: Sketch 3.2.2 (9983) - http://www.bohemiancoding.com/sketch -->
    <title>Have fun anim</title>
    <desc>Created with Sketch.</desc>
    <defs></defs>
    <g id="Page-1" stroke="none" stroke-width="1" fill="none" fill-rule="evenodd" sketch:type="MSPage">
        <g id="web_features" sketch:type="MSArtboardGroup" transform="translate(-184.000000, -2143.000000)" stroke="#4FC1E9">
            <g id="Have-fun" sketch:type="MSLayerGroup" transform="translate(186.000000, 2145.000000)">
                <g id="Have-fun-anim" sketch:type="MSShapeGroup">
                    <path d="M90.0093371,117.701451 C90.0093371,106.389219 101.545653,99.4559147 101.545653,84.1296642 C101.545653,68.8034137 100.057096,56.7613597 98.1964001,54.5718954 C93.3585902,41.80002 83.3108311,39.2456449 75.4959073,39.2456449 C66.1924267,39.2456449 58.0053637,42.8947522 58.0053637,42.8947522 C49.4461615,46.1789487 43.8640731,50.9227881 40.8869593,57.4911812 C36.0491493,68.438503 39.0262632,79.020914 42.7476554,88.1436822 C48.701883,103.834843 56.5168068,103.834843 56.5168068,115.511987 C56.5168068,128.648773 37.5377062,133.392612 37.5377062,133.392612 C28.2342256,136.311898 0.463939962,142.15047 0.463939962,161.490738 L0.463939962,167.694221 L138.870734,167.694221 L138.870734,161.490738 C138.498595,146.164488 125.473722,141.055738 116.170241,136.676809 C111.704571,134.852255 92.2421725,127.554041 90.7536156,123.904933 C90.0093357,121.947994 90.0093371,119.890915 90.0093371,117.701451 Z" id="Shape-2" stroke-width="3" stroke-linecap="round" stroke-linejoin="round"></path>
                    <path d="M61.3719235,48.0519756 C52.220138,50.1744487 22.6014487,7.84681031 22.3105713,7.84390682 C17.3098122,7.79398996 44.4353448,60.0077106 44.8325039,60.7263934" id="Path-346" stroke-width="3"></path>
                    <path d="M91.3350145,51.3992898 C98.3444174,44.7395034 97.1892445,45.6567033 106.018886,38.2929944 C114.700393,31.0528268 135.514126,0.292267085 133.76717,0.0963517668 C132.175914,-0.0821024437 133.376407,3.00313759 133.181025,4.4565305 C131.979354,13.3954444 118.735281,49.214967 105.293764,67.717761" id="Path-345" stroke-width="3"></path>
                    <g id="Pen-drawing-2" transform="translate(147.866542, 28.265403)" stroke-width="2">
                        <g id="flex-button-+-Rectangle-398-+-Rectangle-398-+-Rectangle-398-+-Rectangle-399-+-Imported-Layers-3-+-Line-2">
                            <g id="Imported-Layers-3-+-Line" transform="translate(0.719931, 0.620561)">
                                <path d="M29.1771805,7.12723207 L29.1756702,7.12594013 L21.3111771,0.398137958 L21.3089118,0.396200041 C21.155624,0.265067651 20.9586169,0.187054213 20.7547693,0.192396561 C20.5425894,0.198482114 20.3683467,0.29605603 20.2543915,0.443891923 L2.7286191,21.7376632 C2.64766409,21.8297696 2.60675615,21.9482636 2.58701747,22.076996 L0.909385157,32.3280225 C0.909385157,32.3280225 0.900244176,32.4579496 0.911118861,32.5275988 C0.941477579,32.7346084 1.05243468,32.9187358 1.20572245,33.0498682 C1.35976533,33.1816466 1.55689399,33.2610759 1.76213026,33.2556096 C1.83054235,33.2537876 1.955094,33.2212784 1.955094,33.2212784 L11.4860142,29.6897803 C11.6069379,29.6476082 11.7163181,29.585066 11.7898435,29.4879157 L29.3143487,8.19568416 C29.4381204,8.05624591 29.5019952,7.86294421 29.4702738,7.64820959 C29.4401581,7.44403162 29.3312234,7.25901044 29.1771805,7.12723207" id="Imported-Layers-3" fill="#FFFFFF"></path>
                                <path d="M4.04814422,21.1576847 L12.0244715,27.8017467" id="Line" stroke-linecap="square"></path>
                            </g>
                        </g>
                    </g>
                </g>
            </g>
        </g>
    </g>
</svg>