<?xml version="1.0" encoding="UTF-8" standalone="no"?>
<svg width="311px" height="282px" viewBox="0 0 311 282" version="1.1" xmlns="http://www.w3.org/2000/svg" xmlns:xlink="http://www.w3.org/1999/xlink" xmlns:sketch="http://www.bohemiancoding.com/sketch/ns">
    <!-- Generator: Sketch 3.2.2 (9983) - http://www.bohemiancoding.com/sketch -->
    <title>mark-up anim</title>
    <desc>Created with Sketch.</desc>
    <defs></defs>
    <g id="Page-1" stroke="none" stroke-width="1" fill="none" fill-rule="evenodd" sketch:type="MSPage">
        <g id="web_features" sketch:type="MSArtboardGroup" transform="translate(-139.000000, -763.000000)" stroke="#4FC1E9">
            <g id="Markup" sketch:type="MSLayerGroup" transform="translate(139.000000, 763.000000)">
                <g id="mark-up-anim" sketch:type="MSShapeGroup">
                    <g id="Pen-drawing" transform="translate(154.866542, 0.265403)" stroke-width="2">
                        <g id="flex-button-+-Rectangle-398-+-Rectangle-398-+-Rectangle-398-+-Rectangle-399-+-Imported-Layers-3-+-Line-2">
                            <g id="Imported-Layers-3-+-Line" transform="translate(0.719931, 0.620561)">
                                <path d="M29.1771805,7.12723207 L29.1756702,7.12594013 L21.3111771,0.398137958 L21.3089118,0.396200041 C21.155624,0.265067651 20.9586169,0.187054213 20.7547693,0.192396561 C20.5425894,0.198482114 20.3683467,0.29605603 20.2543915,0.443891923 L2.7286191,21.7376632 C2.64766409,21.8297696 2.60675615,21.9482636 2.58701747,22.076996 L0.909385157,32.3280225 C0.909385157,32.3280225 0.900244176,32.4579496 0.911118861,32.5275988 C0.941477579,32.7346084 1.05243468,32.9187358 1.20572245,33.0498682 C1.35976533,33.1816466 1.55689399,33.2610759 1.76213026,33.2556096 C1.83054235,33.2537876 1.955094,33.2212784 1.955094,33.2212784 L11.4860142,29.6897803 C11.6069379,29.6476082 11.7163181,29.585066 11.7898435,29.4879157 L29.3143487,8.19568416 C29.4381204,8.05624591 29.5019952,7.86294421 29.4702738,7.64820959 C29.4401581,7.44403162 29.3312234,7.25901044 29.1771805,7.12723207" id="Imported-Layers-3" fill="#FFFFFF"></path>
                                <path d="M4.04814422,21.1576847 L12.0244715,27.8017467" id="Line" stroke-linecap="square"></path>
                            </g>
                        </g>
                    </g>
                    <path d="M13.2611531,259.104284 C13.1140638,259.052984 12.9931997,258.943388 12.9282068,258.798814 L7.91576923,247.861338 C7.85647743,247.699276 7.7492961,247.572191 7.57256092,247.572191 C7.44485551,247.572191 7.35705803,247.650307 7.31600986,247.696944 C7.29434555,247.722594 7.27040079,247.744746 7.24531579,247.764567 L1.62399703,254.131645 C1.46550549,254.311196 1.21693602,254.370658 0.995731992,254.285546 C0.775668195,254.199268 0.630859375,253.982407 0.630859375,253.741062 L0.630859375,222.368073 C0.630859375,222.133724 0.768826833,221.920361 0.980909042,221.830585 C1.19413148,221.738478 1.43814004,221.788612 1.60119249,221.953007 L22.0409004,243.738652 C22.2062333,243.840087 22.3179756,244.025468 22.3179756,244.238831 C22.3179756,244.564122 22.0591441,244.833449 21.7364598,244.82179 L13.0068825,244.82179 C12.8198853,244.822956 12.6648144,244.974525 12.6648144,245.15874 C12.6648144,245.172731 12.6648144,245.217036 12.7161246,245.306812 L17.973711,256.147517 C18.1116784,256.432001 18.0022166,256.775946 17.727422,256.922852 L13.708122,259.068141 C13.6248855,259.112446 13.5348075,259.134598 13.4435894,259.134598 C13.3831574,259.134598 13.3204449,259.124105 13.2611531,259.104284 Z M8.96933891,247.420621 L13.7069818,257.752986 L16.7046384,256.153346 L11.7093042,245.857125 C11.5884402,245.637933 11.5245875,245.402417 11.5245875,245.15874 C11.5245875,244.336768 12.1881995,243.662868 13.0034618,243.657038 L20.3339807,243.655872 L1.7710863,223.760179 L1.7710863,252.225369 L6.46312012,246.912281 C6.48934534,246.880801 6.51899124,246.855151 6.54977737,246.830667 C6.82799274,246.560174 7.19514581,246.406273 7.57256092,246.406273 C7.57256092,246.406273 8.75953716,246.814344 8.96933891,247.420621 Z" id="Imported-Layers" fill="#4FC1E9"></path>
                    <path d="M70.3183924,177.593943 C70.1713031,177.542642 70.0504391,177.433046 69.9854461,177.288472 L64.9730086,166.350996 C64.9137168,166.188934 64.8065354,166.061849 64.6298003,166.061849 C64.5020948,166.061849 64.4142974,166.139965 64.3732492,166.186602 C64.3515849,166.212252 64.3276401,166.234404 64.3025551,166.254225 L58.6812364,172.621303 C58.5227448,172.800854 58.2741754,172.860316 58.0529713,172.775204 C57.8329075,172.688926 57.6880987,172.472065 57.6880987,172.23072 L57.6880987,140.857732 C57.6880987,140.623382 57.8260662,140.410019 58.0381484,140.320243 C58.2513708,140.228136 58.4953794,140.27827 58.6584318,140.442665 L79.0981398,162.228311 C79.2634727,162.329745 79.3752149,162.515126 79.3752149,162.728489 C79.3752149,163.05378 79.1163834,163.323107 78.7936992,163.311448 L70.0641218,163.311448 C69.8771246,163.312614 69.7220537,163.464184 69.7220537,163.648399 C69.7220537,163.66239 69.7220537,163.706694 69.7733639,163.79647 L75.0309503,174.637175 C75.1689178,174.921659 75.059456,175.265605 74.7846613,175.41251 L70.7653614,177.557799 C70.6821248,177.602104 70.5920469,177.624256 70.5008287,177.624256 C70.4403967,177.624256 70.3776842,177.613763 70.3183924,177.593943 Z M66.0265782,165.910279 L70.7642211,176.242644 L73.7618777,174.643004 L68.7665436,164.346783 C68.6456795,164.127591 68.5818268,163.892075 68.5818268,163.648399 C68.5818268,162.826426 69.2454389,162.152526 70.0607011,162.146696 L77.3912201,162.14553 L58.8283256,142.249838 L58.8283256,170.715027 L63.5203595,165.401939 C63.5465847,165.370459 63.5762306,165.344809 63.6070167,165.320325 C63.8852321,165.049832 64.2523851,164.895931 64.6298003,164.895931 C64.6298003,164.895931 65.8167765,165.304002 66.0265782,165.910279 Z" id="Imported-Layers" fill="#4FC1E9"></path>
                    <path d="M224.480287,130.135726 C224.333198,130.084426 224.212334,129.974829 224.147341,129.830255 L219.134903,118.89278 C219.075611,118.730717 218.96843,118.603632 218.791695,118.603632 C218.663989,118.603632 218.576192,118.681749 218.535144,118.728385 C218.513479,118.754035 218.489535,118.776188 218.46445,118.796008 L212.843131,125.163086 C212.684639,125.342637 212.43607,125.402099 212.214866,125.316987 C211.994802,125.230709 211.849993,125.013849 211.849993,124.772504 L211.849993,93.3995149 C211.849993,93.1651654 211.987961,92.9518024 212.200043,92.8620268 C212.413265,92.7699192 212.657274,92.8200537 212.820326,92.9844481 L233.260034,114.770094 C233.425367,114.871529 233.537109,115.05691 233.537109,115.270273 C233.537109,115.595564 233.278278,115.864891 232.955594,115.853232 L224.226016,115.853232 C224.039019,115.854398 223.883948,116.005967 223.883948,116.190182 C223.883948,116.204173 223.883948,116.248478 223.935258,116.338254 L229.192845,127.178958 C229.330812,127.463442 229.22135,127.807388 228.946556,127.954294 L224.927256,130.099583 C224.844019,130.143887 224.753941,130.16604 224.662723,130.16604 C224.602291,130.16604 224.539579,130.155547 224.480287,130.135726 Z M220.188473,118.452063 L224.926116,128.784427 L227.923772,127.184788 L222.928438,116.888567 C222.807574,116.669374 222.743721,116.433859 222.743721,116.190182 C222.743721,115.36821 223.407333,114.694309 224.222596,114.68848 L231.553115,114.687314 L212.99022,94.7916209 L212.99022,123.25681 L217.682254,117.943722 C217.708479,117.912243 217.738125,117.886592 217.768911,117.862108 C218.047127,117.591615 218.41428,117.437714 218.791695,117.437714 C218.791695,117.437714 219.978671,117.845785 220.188473,118.452063 Z" id="Imported-Layers" fill="#4FC1E9"></path>
                    <path d="M147.347658,31.0410156 C135.347658,27.5410156 130.847658,25.0410154 115.369143,25.0410156 C99.8906271,25.0410157 42.9012719,41.2714986 26.2402344,77.9257813 C21.8560507,87.5709854 23.2402344,102.392482 23.2402344,111.925781 C23.2402344,156.894013 55.2292743,236.213061 113.240234,227.925781 C134.095332,224.946482 174.692102,170.828529 184.240234,152.925781 C193.851746,134.904198 202.71622,112.734526 197.240234,91.9257813 C189.119545,61.06716 154.471882,43.5369509 127.240234,33.9257813 C100.789337,24.5901704 44.5746214,21.0394345 26.2402343,48.5410152" id="Path-98" stroke-width="3"></path>
                    <rect id="Rectangle-89" stroke-width="2" fill="#FFFFFF" x="32.3691406" y="249" width="68" height="33" rx="5"></rect>
                    <rect id="Rectangle-89" stroke-width="2" fill="#FFFFFF" x="89.3691406" y="170" width="68" height="33" rx="5"></rect>
                    <rect id="Rectangle-89" stroke-width="2" fill="#FFFFFF" x="242.369141" y="124" width="68" height="33" rx="5"></rect>
                </g>
            </g>
        </g>
    </g>
</svg>