<?xml version="1.0" encoding="UTF-8" standalone="no"?>
<svg width="320px" height="241px" viewBox="0 0 320 241" version="1.1" xmlns="http://www.w3.org/2000/svg" xmlns:xlink="http://www.w3.org/1999/xlink" xmlns:sketch="http://www.bohemiancoding.com/sketch/ns">
    <!-- Generator: Sketch 3.2.2 (9983) - http://www.bohemiancoding.com/sketch -->
    <title>Co-creat anim</title>
    <desc>Created with Sketch.</desc>
    <defs></defs>
    <g id="Page-1" stroke="none" stroke-width="1" fill="none" fill-rule="evenodd" sketch:type="MSPage">
        <g id="web_features" sketch:type="MSArtboardGroup" transform="translate(-621.000000, -497.000000)">
            <g id="Co-create" sketch:type="MSLayerGroup" transform="translate(84.000000, 498.000000)">
                <g id="Co-creat-anim" transform="translate(538.000000, 0.000000)" sketch:type="MSShapeGroup">
                    <path d="M15,30 C23.2842712,30 30,23.2842712 30,15 C30,6.71572875 23.2842712,0 15,0 C6.71572875,0 0,6.71572875 0,15 C0,23.2842712 6.71572875,30 15,30 Z" id="Oval-59" stroke="#3BAFDA" stroke-width="2"></path>
                    <path d="M148,53 C156.284271,53 163,46.2842712 163,38 C163,29.7157288 156.284271,23 148,23 C139.715729,23 133,29.7157288 133,38 C133,46.2842712 139.715729,53 148,53 Z" id="Oval-59" stroke="#3BAFDA" stroke-width="2"></path>
                    <path d="M303,181 C311.284271,181 318,174.284271 318,166 C318,157.715729 311.284271,151 303,151 C294.715729,151 288,157.715729 288,166 C288,174.284271 294.715729,181 303,181 Z" id="Oval-59" stroke="#3BAFDA" stroke-width="2"></path>
                    <path d="M15,92 C23.2842712,92 30,85.2842712 30,77 C30,68.7157288 23.2842712,62 15,62 C6.71572875,62 0,68.7157288 0,77 C0,85.2842712 6.71572875,92 15,92 Z" id="Oval-59" stroke="#3BAFDA" stroke-width="2"></path>
                    <path d="M62,239 C70.2842712,239 77,232.284271 77,224 C77,215.715729 70.2842712,209 62,209 C53.7157288,209 47,215.715729 47,224 C47,232.284271 53.7157288,239 62,239 Z" id="Oval-59" stroke="#3BAFDA" stroke-width="2"></path>
                    <path d="M132.5,158 C153.762963,158 171,140.762963 171,119.5 C171,98.2370371 153.762963,81 132.5,81 C111.237037,81 94,98.2370371 94,119.5 C94,140.762963 111.237037,158 132.5,158 Z" id="Oval-59" stroke="#3BAFDA" stroke-width="2"></path>
                    <path d="M151.659692,99.5864834 C151.019123,99.5864834 150.462781,99.7206886 149.992882,99.9912124 C149.521321,100.259623 149.286372,100.646915 149.286372,101.149392 L149.286372,128.702661 L135.207143,102.444419 C134.677953,101.438409 134.139896,100.710319 133.594637,100.259623 C133.046606,99.8115677 132.378885,99.5864834 131.585376,99.5864834 C130.003347,99.5864834 129.212056,100.107453 129.212056,101.149392 L129.17105,128.702661 L115.091821,102.444419 C114.563185,101.438409 114.025129,100.710319 113.480424,100.259623 C112.932393,99.8115677 112.264117,99.5864834 111.471717,99.5864834 C109.88858,99.5864834 109.096734,100.107453 109.096734,101.149392 L109.096734,137.383198 C109.096734,137.886203 109.331684,138.281421 109.804907,138.568853 C110.274806,138.857869 110.830594,139 111.471717,139 C112.112287,139 112.668629,138.857869 113.140744,138.568853 C113.610643,138.281421 113.847255,137.886203 113.847255,137.383198 L113.847255,109.830986 L128.549875,136.952051 C129.341167,138.31735 130.339147,139 131.545479,139 C132.186049,139 132.742391,138.857869 133.21506,138.568853 C133.684959,138.281421 133.922125,137.886203 133.922125,137.383198 L133.961468,109.830986 L148.664088,136.952051 C149.45538,138.31735 150.453915,139 151.659692,139 C152.300262,139 152.857158,138.857869 153.329828,138.568853 C153.799172,138.281421 154.036892,137.886203 154.036892,137.383198 L154.036892,101.149392 C154.036892,100.646915 153.799172,100.259623 153.329828,99.9912124 C152.857158,99.7206886 152.300262,99.5864834 151.659692,99.5864834 Z" id="Connecter-Logo-4" fill="#4FC1E9"></path>
                    <path d="M23.5,27.5 L100.5,95.5" id="Line" stroke="#3BAFDA" stroke-width="2" stroke-linecap="square"></path>
                    <path d="M28,84 L93,109" id="Line" stroke="#3BAFDA" stroke-width="2" stroke-linecap="square"></path>
                    <path d="M139.5,80.5 L145.5,53.5" id="Line" stroke="#3BAFDA" stroke-width="2" stroke-linecap="square"></path>
                    <path d="M170,133 L288,163.5" id="Line" stroke="#3BAFDA" stroke-width="2" stroke-linecap="square"></path>
                    <path d="M70.5,211.5 L109.5,150.5" id="Line" stroke="#3BAFDA" stroke-width="2" stroke-linecap="square"></path>
                </g>
            </g>
        </g>
    </g>
</svg>