<?xml version="1.0" encoding="UTF-8" standalone="no"?>
<svg width="288px" height="164px" viewBox="0 0 288 164" version="1.1" xmlns="http://www.w3.org/2000/svg" xmlns:xlink="http://www.w3.org/1999/xlink" xmlns:sketch="http://www.bohemiancoding.com/sketch/ns">
    <!-- Generator: Sketch 3.2.2 (9983) - http://www.bohemiancoding.com/sketch -->
    <title>Integrate anim</title>
    <desc>Created with Sketch.</desc>
    <defs></defs>
    <g id="Page-1" stroke="none" stroke-width="1" fill="none" fill-rule="evenodd" sketch:type="MSPage">
        <g id="web_features" sketch:type="MSArtboardGroup" transform="translate(-608.000000, -1846.000000)">
            <g id="Integrate" sketch:type="MSLayerGroup" transform="translate(83.000000, 1833.000000)">
                <g id="Integrate-anim" transform="translate(527.000000, 15.000000)" sketch:type="MSShapeGroup">
                    <path d="M206.055644,87.5250541 C196.61928,87.5250541 188.96928,85.2755891 188.96928,82.5012838 C188.96928,77.2528819 196.759839,70.6923795 196.759839,70.6923795 C198.087811,70.6923795 200.743755,74.6286809 202.071727,74.6286809 C203.3997,74.6286809 208.711588,66.756078 211.367532,66.756078 C220.493406,72.391812 222.623825,79.9463618 223.044455,81.9701455 C223.062287,82.0205302 223.064385,82.0730142 223.076972,82.1233989 C223.123126,82.359577 223.140958,82.4949857 223.142007,82.4991844 L223.142007,82.5012838 C223.142007,85.2755891 215.492007,87.5250541 206.055644,87.5250541 M227.5091,81.9761638 C226.386887,76.8678049 221.131231,57.4750244 206.055644,57.4750244 C190.980057,57.4750244 185.7244,76.8678049 184.602187,81.9761638 C184.454768,82.3787029 184.353061,82.7869599 184.353061,83.2055092 C184.353061,87.9422055 194.07014,91.7823374 206.055644,91.7823374 C218.041147,91.7823374 227.758226,87.9422055 227.758226,83.2055092 C227.758226,82.7869599 227.656519,82.3787029 227.5091,81.9761638" id="basecamp-logo" stroke="#4FC1E9" stroke-width="3"></path>
                    <path d="M94.5187325,66.8619645 C94.1970075,66.6778309 93.8179527,66.5864834 93.3819455,66.5864834 C92.9459383,66.5864834 92.5672608,66.6778309 92.2474216,66.8619645 C91.9264508,67.0446595 91.7665312,67.3082725 91.7665312,67.6502862 L91.7665312,86.4045743 L82.1834245,68.5317535 C81.8232282,67.847007 81.4569972,67.3514288 81.085863,67.0446595 C80.712843,66.7396883 80.2583545,66.5864834 79.7182487,66.5864834 C78.6414316,66.5864834 78.1028344,66.9410844 78.1028344,67.6502862 L78.0749239,86.4045743 L68.4918171,68.5317535 C68.131998,67.847007 67.7657671,67.3514288 67.3950101,67.0446595 C67.02199,66.7396883 66.5671244,66.5864834 66.0277729,66.5864834 C64.9502014,66.5864834 64.4112271,66.9410844 64.4112271,67.6502862 L64.4112271,92.313031 C64.4112271,92.6554043 64.5711467,92.9244119 64.8932489,93.1200537 C65.2130881,93.3167745 65.5913885,93.4135166 66.0277729,93.4135166 C66.4637801,93.4135166 66.8424577,93.3167745 67.1638055,93.1200537 C67.4836447,92.9244119 67.6446958,92.6554043 67.6446958,92.313031 L67.6446958,73.5594621 L77.6521176,92.0195682 C78.1907148,92.9488671 78.8699959,93.4135166 79.6910925,93.4135166 C80.1270998,93.4135166 80.5057773,93.3167745 80.8275024,93.1200537 C81.1473416,92.9244119 81.3087698,92.6554043 81.3087698,92.313031 L81.3355488,73.5594621 L91.3429706,92.0195682 C91.8815677,92.9488671 92.5612261,93.4135166 93.3819455,93.4135166 C93.8179527,93.4135166 94.1970075,93.3167745 94.5187325,93.1200537 C94.8381946,92.9244119 95,92.6554043 95,92.313031 L95,67.6502862 C95,67.3082725 94.8381946,67.0446595 94.5187325,66.8619645" id="Connecter-Logo-2" fill="#4FC1E9"></path>
                    <ellipse id="Oval-23" stroke="#4FC1E9" stroke-width="3" cx="81.8190826" cy="80" rx="81.6708823" ry="80"></ellipse>
                    <ellipse id="Oval-23" stroke="#4FC1E9" stroke-width="3" cx="202.812982" cy="80" rx="81.6708823" ry="80"></ellipse>
                </g>
            </g>
        </g>
    </g>
</svg>