<?xml version="1.0" encoding="UTF-8" standalone="no"?>
<svg width="15px" height="14px" viewBox="0 0 15 14" version="1.1" xmlns="http://www.w3.org/2000/svg" xmlns:xlink="http://www.w3.org/1999/xlink" xmlns:sketch="http://www.bohemiancoding.com/sketch/ns">
    <!-- Generator: Sketch 3.2.2 (9983) - http://www.bohemiancoding.com/sketch -->
    <title>Fill 54</title>
    <desc>Created with Sketch.</desc>
    <defs></defs>
    <g id="Page-1" stroke="none" stroke-width="1" fill="none" fill-rule="evenodd" sketch:type="MSPage">
        <g id="web_blog" sketch:type="MSArtboardGroup" transform="translate(-512.000000, -167.000000)" fill="#4FC1E9">
            <g id="Blog" sketch:type="MSLayerGroup" transform="translate(195.000000, 117.000000)">
                <g id="author-2" transform="translate(155.000000, 0.000000)" sketch:type="MSShapeGroup">
                    <g id="Fill-178-+-Fill-54" transform="translate(140.000000, 50.000000)">
                        <path d="M22.56852,2.98126316 C22.86748,3.27894737 23.28336,3.42778947 23.78138,3.42778947 L23.7984,3.42778947 C24.32972,3.42778947 24.74486,3.27894737 25.0601,2.98126316 C25.37608,2.66663158 25.52556,2.30263158 25.52556,1.83989474 C25.52556,1.39336842 25.35906,1.01315789 25.0601,0.715473684 C24.76114,0.417789474 24.346,0.268947368 23.83096,0.268947368 C23.31592,0.268947368 22.90078,0.417789474 22.58554,0.715473684 C22.26956,1.01315789 22.1038,1.39336842 22.1038,1.83989474 C22.1038,2.30263158 22.25328,2.66663158 22.56852,2.98126316 L22.56852,2.98126316 Z M22.28658,13.8143158 L25.34278,13.8143158 L25.34278,4.68484211 L22.28658,4.68484211 L22.28658,13.8143158 Z M30.07656,13.8143158 L30.07656,8.71978947 C30.07656,8.40589474 30.10986,8.15757895 30.17646,7.97557895 C30.30892,7.66168421 30.50872,7.39715789 30.77438,7.182 C31.02302,6.96684211 31.35528,6.86736842 31.75414,6.86736842 C32.28546,6.86736842 32.6673,7.04936842 32.91668,7.41336842 C33.16606,7.77736842 33.29852,8.29021053 33.29852,8.93494737 L33.29852,13.8143158 L36.35472,13.8143158 L36.35472,8.58789474 C36.35472,7.23136842 36.03948,6.20642105 35.39198,5.51157895 C34.74374,4.81673684 33.89644,4.46968421 32.8338,4.46968421 C32.45196,4.46968421 32.0864,4.51905263 31.77042,4.61852632 C31.45518,4.70105263 31.18952,4.83368421 30.95716,5.01494737 C30.74108,5.18073684 30.57458,5.34578947 30.44212,5.49536842 C30.30892,5.64347368 30.17646,5.80926316 30.05954,6.00747368 L30.07656,6.00747368 L30.07656,4.68484211 L27.02036,4.68484211 L27.03664,5.13136842 L27.03664,7.85989474 C27.03664,9.38147368 27.03664,11.3665263 27.02036,13.8143158 L30.07656,13.8143158 L30.07656,13.8143158 Z" id="Fill-54"></path>
                    </g>
                </g>
            </g>
        </g>
    </g>
</svg>