<?xml version="1.0" encoding="UTF-8" standalone="no"?>
<svg width="51px" height="50px" viewBox="0 0 51 50" version="1.1" xmlns="http://www.w3.org/2000/svg" xmlns:xlink="http://www.w3.org/1999/xlink" xmlns:sketch="http://www.bohemiancoding.com/sketch/ns">
    <!-- Generator: Sketch 3.2.2 (9983) - http://www.bohemiancoding.com/sketch -->
    <title>linkedin</title>
    <desc>Created with Sketch.</desc>
    <defs></defs>
    <g id="Page-1" stroke="none" stroke-width="1" fill="none" fill-rule="evenodd" sketch:type="MSPage">
        <g id="mobile_menu" sketch:type="MSArtboardGroup" transform="translate(-84.000000, -297.000000)">
            <g id="Menu" sketch:type="MSLayerGroup" transform="translate(0.000000, 132.000000)">
                <g id="social-network" transform="translate(25.000000, 165.000000)" sketch:type="MSShapeGroup">
                    <g id="linkedin" transform="translate(59.746760, 0.000000)">
                        <ellipse id="Oval-41" fill="#4FC1E9" cx="25.129016" cy="25" rx="25.0388199" ry="25"></ellipse>
                        <path d="M11.7404557,19.8853333 L18.4059011,19.8853333 L18.4059011,37.4773333 L11.7404557,37.4773333 L11.7404557,19.8853333 Z M15.027451,11.6946667 C13.0813453,11.6946667 11.5050939,13.0693333 11.5050939,14.764 C11.5050939,16.46 13.0813453,17.832 15.027451,17.832 C16.9722117,17.832 18.549808,16.46 18.549808,14.764 C18.549808,13.0693333 16.9722117,11.6946667 15.027451,11.6946667 Z M40.0013527,25.5173333 C40.0013527,23.5373333 38.9079291,20.948 35.7137336,19.8373333 C34.1899342,19.3053333 32.2223098,19.2253333 30.1753348,19.9853333 C28.1283598,20.744 27.2635734,22.1506667 27.2635734,22.1506667 L27.2635734,22.152 C27.2191909,22.1733333 27.1842229,22.1946667 27.1384954,22.212 C26.9542408,21.9906667 27.0349363,19.8853333 27.0349363,19.8853333 L21.0365733,19.8853333 L21.0365733,37.4773333 L27.8876184,37.4773333 L27.8876184,27.0066667 C27.8876184,25.996 28.9635579,24.8973333 30.1403668,24.7306667 L30.9890141,24.7306667 C32.3541124,24.8946667 33.2054495,25.7413333 33.2619364,27.204 L33.2619364,37.4786667 L34.585342,37.4786667 L40.0013527,37.4786667 L40.0013527,37.2933333 L40.0013527,31.348 C40.0685989,29.3866667 40.1358451,27.4253333 40.0013527,25.5173333 Z" id="Fill-2" fill="#FFFFFF"></path>
                    </g>
                </g>
            </g>
        </g>
    </g>
</svg>