<?xml version="1.0" encoding="UTF-8" standalone="no"?>
<svg width="51px" height="50px" viewBox="0 0 51 50" version="1.1" xmlns="http://www.w3.org/2000/svg" xmlns:xlink="http://www.w3.org/1999/xlink" xmlns:sketch="http://www.bohemiancoding.com/sketch/ns">
    <!-- Generator: Sketch 3.2.2 (9983) - http://www.bohemiancoding.com/sketch -->
    <title>twitter</title>
    <desc>Created with Sketch.</desc>
    <defs></defs>
    <g id="Page-1" stroke="none" stroke-width="1" fill="none" fill-rule="evenodd" sketch:type="MSPage">
        <g id="mobile_menu" sketch:type="MSArtboardGroup" transform="translate(-25.000000, -297.000000)">
            <g id="Menu" sketch:type="MSLayerGroup" transform="translate(0.000000, 132.000000)">
                <g id="social-network" transform="translate(25.000000, 165.000000)" sketch:type="MSShapeGroup">
                    <g id="twitter">
                        <path d="M25.0388199,50 C38.8673782,50 50.0776398,38.8071187 50.0776398,25 C50.0776398,11.1928813 38.8673782,0 25.0388199,0 C11.2102615,0 0,11.1928813 0,25 C0,38.8071187 11.2102615,50 25.0388199,50 Z" id="Oval-40" fill="#4FC1E9"></path>
                        <path d="M15.873863,22.9426667 L15.873863,26.8453333 C15.731301,27.8573333 15.731301,29.472 15.873863,30.484 C16.0191148,32.6493333 16.8422086,34.1466667 18.0580203,35.2533333 C19.3168695,37.092 23.6004538,36.9866667 27.1550891,36.9866667 C30.9666049,36.9866667 33.9698212,37.3466667 34.4997214,34.6453333 C35.7558808,28.6826667 27.1873673,30.9773333 22.4303696,30.3973333 C22.2514946,29.8973333 22.5272042,29.2706667 22.4303696,28.576 L22.4303696,25.024 C26.3400649,24.5933333 32.2496628,26.1493333 34.0612761,23.6386667 C34.4553389,23.2013333 34.6194197,22.732 34.6732167,22.1626667 C35.1668039,16.6413333 26.9372114,19.1306667 22.4303696,18.436 C22.7894644,15.0013333 22.0793443,12.288 19.5468516,12.0213333 C14.2680232,11.4693333 16.2450621,18.644 15.873863,22.9426667 M31.5260935,15.8346667 C34.6584225,16.0186667 36.2992303,17.6906667 37.2083992,20.084 C38.012664,24.2173333 35.8137126,27.276 32.0492691,27.7133333 C35.8755791,28.2626667 38.4739731,31.968 36.944794,36.2053333 C35.9038225,38.032 34.5172054,39.5253333 31.784319,39.6746667 L22.5164448,39.6746667 C18.9281864,39.5946667 16.7897565,38.068 15.0843924,36.1186667 C13.8968241,34.496 13.0549014,32.528 13.0777651,29.708 C13.2808487,24.9066667 13.1060085,19.7373333 13.1598055,14.7946667 C13.5377293,11.5546667 15.3695163,9.75733333 18.5852307,9.33333333 L19.7163121,9.33333333 C22.9360612,9.75733333 24.6844629,11.636 25.1417372,14.7946667 L25.1417372,15.8346667 L31.5260935,15.8346667" id="Fill-2" fill="#FFFFFF"></path>
                    </g>
                </g>
            </g>
        </g>
    </g>
</svg>