<?xml version="1.0" encoding="UTF-8" standalone="no"?>
<svg width="40px" height="40px" viewBox="0 0 40 40" version="1.1" xmlns="http://www.w3.org/2000/svg" xmlns:xlink="http://www.w3.org/1999/xlink" xmlns:sketch="http://www.bohemiancoding.com/sketch/ns">
    <!-- Generator: Sketch 3.3 (11970) - http://www.bohemiancoding.com/sketch -->
    <title>twitter icon hover</title>
    <desc>Created with Sketch.</desc>
    <defs></defs>
    <g id="artifacts" stroke="none" stroke-width="1" fill="none" fill-rule="evenodd" sketch:type="MSPage">
        <g id="twitter-icon-hover" sketch:type="MSArtboardGroup">
            <g sketch:type="MSLayerGroup">
                <circle id="Oval-40" fill="#FFFFFF" sketch:type="MSShapeGroup" cx="20" cy="20" r="20"></circle>
                <path d="M12.6990904,18.3541333 L12.6990904,21.4762667 C12.5850408,22.2858667 12.5850408,23.5776 12.6990904,24.3872 C12.8152919,26.1194667 13.4737669,27.3173333 14.4464162,28.2026667 C15.4534956,29.6736 18.8803631,29.5893333 21.7240713,29.5893333 C24.773284,29.5893333 27.175857,29.8773333 27.5997771,27.7162667 C28.6047047,22.9461333 21.7498938,24.7818667 17.9442957,24.3178667 C17.8011957,23.9178667 18.0217633,23.4165333 17.9442957,22.8608 L17.9442957,20.0192 C21.0720519,19.6746667 25.7997303,20.9194667 27.2490208,18.9109333 C27.5642711,18.5610667 27.6955358,18.1856 27.7385733,17.7301333 C28.1334431,13.3130667 21.5497691,15.3045333 17.9442957,14.7488 C18.2315715,12.0010667 17.6634755,9.8304 15.6374813,9.61706667 C11.4144186,9.17546667 12.9960497,14.9152 12.6990904,18.3541333 M25.2208748,12.6677333 C27.726738,12.8149333 29.0393842,14.1525333 29.7667194,16.0672 C30.4101312,19.3738667 28.6509701,21.8208 25.6394153,22.1706667 C28.7004633,22.6101333 30.7791785,25.5744 29.5558352,28.9642667 C28.723058,30.4256 27.6137643,31.6202667 25.4274552,31.7397333 L18.0131558,31.7397333 C15.1425491,31.6757333 13.4318052,30.4544 12.0675139,28.8949333 C11.1174593,27.5968 10.4439211,26.0224 10.4622121,23.7664 C10.624679,19.9253333 10.4848068,15.7898667 10.5278444,11.8357333 C10.8301834,9.24373333 12.2956131,7.80586667 14.8681845,7.46666667 L15.7730497,7.46666667 C18.3488489,7.80586667 19.7475703,9.3088 20.1133898,11.8357333 L20.1133898,12.6677333 L25.2208748,12.6677333" id="Fill-2" fill="#3BAFDA" sketch:type="MSShapeGroup"></path>
            </g>
        </g>
    </g>
</svg>