<?xml version="1.0" encoding="UTF-8" standalone="no"?>
<svg width="15px" height="13px" viewBox="0 0 15 13" version="1.1" xmlns="http://www.w3.org/2000/svg" xmlns:xlink="http://www.w3.org/1999/xlink" xmlns:sketch="http://www.bohemiancoding.com/sketch/ns">
    <!-- Generator: Sketch 3.2.2 (9983) - http://www.bohemiancoding.com/sketch -->
    <title>Fill 178</title>
    <desc>Created with Sketch.</desc>
    <defs></defs>
    <g id="Page-1" stroke="none" stroke-width="1" fill="none" fill-rule="evenodd" sketch:type="MSPage">
        <g id="web_blog" sketch:type="MSArtboardGroup" transform="translate(-490.000000, -168.000000)" fill="#4FC1E9">
            <g id="Blog" sketch:type="MSLayerGroup" transform="translate(195.000000, 117.000000)">
                <g id="author-2" transform="translate(155.000000, 0.000000)" sketch:type="MSShapeGroup">
                    <g id="Fill-178-+-Fill-54" transform="translate(140.000000, 50.000000)">
                        <path d="M5.04902,13.5947368 C6.1124,13.5947368 7.10844,13.4296842 8.05564,13.0988421 C8.98582,12.7510526 9.7828,12.3045263 10.44732,11.7423158 C11.09482,11.1801053 11.67646,10.5353684 12.1582,9.80736842 C12.62292,9.06315789 12.98848,8.302 13.22084,7.50842105 C13.45394,6.71484211 13.57012,5.92052632 13.57012,5.11 L13.57012,4.72978947 C14.15102,4.30021053 14.64978,3.78736842 15.06492,3.192 C14.48328,3.42336842 13.91866,3.58842105 13.33702,3.63852632 C13.98526,3.25757895 14.4337,2.71231579 14.64978,2.00126316 C14.06814,2.34831579 13.43692,2.59663158 12.75612,2.72852632 C12.1582,2.1 11.42708,1.78610526 10.5635,1.78610526 C9.7495,1.78610526 9.0354,2.06684211 8.45376,2.646 C7.87286,3.24136842 7.5739,3.93621053 7.5739,4.76294737 C7.5739,4.97810526 7.6072,5.20947368 7.65678,5.44084211 C6.42764,5.39147368 5.28138,5.07684211 4.20172,4.53157895 C3.13908,3.96936842 2.22518,3.24136842 1.47778,2.33210526 C1.21212,2.79484211 1.06264,3.29073684 1.06264,3.83673684 C1.06264,4.33263158 1.19584,4.81231579 1.4282,5.25884211 C1.67758,5.68915789 1.99282,6.03621053 2.40796,6.31768421 C1.92622,6.30073684 1.47778,6.16884211 1.04636,5.93747368 L1.04636,5.97063158 C1.04636,6.69789474 1.27872,7.32642105 1.72716,7.87242105 C2.19188,8.41842105 2.7565,8.74852632 3.45432,8.89736842 C3.18866,8.96368421 2.923,8.99684211 2.65734,8.99684211 C2.49084,8.99684211 2.30806,8.98063158 2.09272,8.94747368 C2.29178,9.54284211 2.64032,10.0387368 3.15536,10.4196842 C3.6704,10.8161053 4.25204,11.0143158 4.89954,11.0143158 C3.8036,11.8749474 2.57446,12.2883158 1.17882,12.2883158 C0.91316,12.2883158 0.6808,12.2883158 0.46472,12.2551579 C1.84334,13.1482105 3.38772,13.5947368 5.04902,13.5947368" id="Fill-178"></path>
                    </g>
                </g>
            </g>
        </g>
    </g>
</svg>