<?xml version="1.0" encoding="UTF-8" standalone="no"?>
<svg width="137px" height="22px" viewBox="0 0 137 22" version="1.1" xmlns="http://www.w3.org/2000/svg" xmlns:xlink="http://www.w3.org/1999/xlink" xmlns:sketch="http://www.bohemiancoding.com/sketch/ns">
    <!-- Generator: Sketch 3.2.2 (9983) - http://www.bohemiancoding.com/sketch -->
    <title>Connecter Logo</title>
    <desc>Created with Sketch.</desc>
    <defs></defs>
    <g id="Page-1" stroke="none" stroke-width="1" fill="none" fill-rule="evenodd" sketch:type="MSPage">
        <g id="mobile_menu" sketch:type="MSArtboardGroup" transform="translate(-25.000000, -94.000000)" fill="#FFFFFF">
            <g id="Header" sketch:type="MSLayerGroup" transform="translate(0.000000, 77.000000)">
                <path d="M31.3481579,18.4318575 C32.2605703,18.4318575 33.0384995,18.5576386 33.6822503,18.8056907 C34.3250863,19.0549129 34.7971499,19.3930594 35.0981362,19.8207153 C35.3988176,20.2483712 35.6162474,20.6464832 35.7522554,21.0150512 C35.8861288,21.3830342 35.9641961,21.7755884 35.9849328,22.1935913 C35.9849328,22.6110092 36.2441408,22.8207419 36.7634718,22.8207419 C37.0324383,22.8207419 37.2291315,22.7511235 37.3535513,22.6110092 C37.4788861,22.4726499 37.5414009,22.2131897 37.5414009,21.8352613 C37.5414009,20.5022736 36.984866,19.363223 35.8766753,18.4175243 C34.7663499,17.4727031 33.2571491,17 31.3481579,17 C29.4602084,17 27.9305759,17.5078048 26.7577356,18.5225369 C25.5855053,19.5369765 25,21.1191863 25,23.2682888 L25,32.7305412 C25,34.8805212 25.5757469,36.462731 26.7275455,37.4774631 C27.8787343,38.4916102 29.3876301,39 31.254843,39 C33.1845708,39 34.7132885,38.5223242 35.8443505,37.56668 C36.9754125,36.6113283 37.5414009,35.4772504 37.5414009,34.1641537 C37.5414009,33.7663343 37.4788861,33.4969286 37.3535513,33.3579843 C37.2291315,33.2187475 37.021765,33.1491291 36.731452,33.1491291 C36.2752458,33.1491291 36.026711,33.3579843 35.9849328,33.7756947 C35.9227228,34.1934051 35.8605129,34.5224837 35.7986079,34.7611754 C35.736093,34.999867 35.606184,35.3225103 35.4091859,35.7314453 C35.2118828,36.1389177 34.9624332,36.4580508 34.6623617,36.6862119 C34.3610705,36.9158357 33.9356643,37.1191331 33.3864482,37.2981518 C32.8366221,37.4774631 32.188297,37.56668 31.4417778,37.56668 C28.1839899,37.56668 26.5552484,35.9549262 26.5552484,32.7305412 L26.5552484,23.2682888 C26.5552484,20.0450738 28.1537998,18.4318575 31.3481579,18.4318575 Z M47.5754975,17 C45.6665064,17 44.1466323,17.5025396 43.017095,18.5070336 C41.886033,19.5124053 41.3203496,21.0992953 41.3203496,23.2682888 L41.3203496,32.7305412 C41.3203496,34.9004122 41.886033,36.4873022 43.017095,37.4923813 C44.1466323,38.4971679 45.6665064,39 47.5754975,39 C49.4634471,39 50.9830163,38.4971679 52.1339001,37.4923813 C53.2853938,36.4873022 53.8614456,34.9004122 53.8614456,32.7305412 L53.8614456,23.2682888 C53.8614456,21.0992953 53.2853938,19.5124053 52.1339001,18.5070336 C50.9830163,17.5025396 49.4634471,17 47.5754975,17 Z M52.3055873,32.7305412 C52.3055873,34.343465 51.8954286,35.5524265 51.0763312,36.3577184 C50.2563188,37.1635953 49.0895776,37.56668 47.5754975,37.56668 C44.4433493,37.56668 42.8768177,35.9549262 42.8768177,32.7305412 L42.8768177,23.2682888 C42.8768177,20.0450738 44.4433493,18.4318575 47.5754975,18.4318575 C49.0895776,18.4318575 50.2563188,18.8361122 51.0763312,19.6416966 C51.8954286,20.4475735 52.3055873,21.656535 52.3055873,23.2682888 L52.3055873,32.7305412 Z M99.461633,18.4318575 C99.6485677,18.4318575 99.8047025,18.3578513 99.9294273,18.2086691 C100.053847,18.0594868 100.115752,17.8857333 100.115752,17.6868236 C100.115752,17.2293312 99.8983223,17 99.461633,17 L88.3839952,17 C87.8854009,17 87.6368661,17.2188007 87.6368661,17.6564021 L87.6368661,38.1634091 C87.6368661,38.601888 87.8854009,38.8206887 88.3839952,38.8206887 L99.461633,38.8206887 C99.8983223,38.8206887 100.115752,38.5919426 100.115752,38.1338652 C100.115752,37.9346629 100.053847,37.7600319 99.9294273,37.6120197 C99.8047025,37.4619598 99.6485677,37.3876612 99.461633,37.3876612 L89.1930293,37.3876612 L89.1930293,28.5818109 L94.1405489,28.5818109 C94.5772382,28.5818109 94.7940581,28.3630102 94.7940581,27.9254089 C94.7940581,27.7267917 94.7321532,27.5568408 94.6074283,27.417604 C94.4830085,27.2780747 94.3277886,27.2084563 94.1405489,27.2084563 L89.1930293,27.2084563 L89.1930293,18.4318575 L99.461633,18.4318575 Z M108.789464,18.4318575 C109.701876,18.4318575 110.4795,18.5576386 111.123251,18.8056907 C111.766392,19.0549129 112.238456,19.3930594 112.539137,19.8207153 C112.839819,20.2483712 113.057553,20.6464832 113.193256,21.0150512 C113.32713,21.3830342 113.405502,21.7755884 113.425934,22.1935913 C113.425934,22.6110092 113.685447,22.8207419 114.204778,22.8207419 C114.473439,22.8207419 114.670742,22.7511235 114.795162,22.6110092 C114.920192,22.4726499 114.982402,22.2131897 114.982402,21.8352613 C114.982402,20.5022736 114.426477,19.363223 113.317676,18.4175243 C112.207046,17.4727031 110.69815,17 108.789464,17 C106.901514,17 105.371272,17.5078048 104.199042,18.5225369 C103.026506,19.5369765 102.441001,21.1191863 102.441001,23.2682888 L102.441001,32.7305412 C102.441001,34.8805212 103.017053,36.462731 104.168851,37.4774631 C105.31943,38.4916102 106.828936,39 108.696149,39 C110.625877,39 112.154899,38.5223242 113.285961,37.56668 C114.416718,36.6113283 114.982402,35.4772504 114.982402,34.1641537 C114.982402,33.7663343 114.920192,33.4969286 114.795162,33.3579843 C114.670742,33.2187475 114.463071,33.1491291 114.172758,33.1491291 C113.716552,33.1491291 113.467407,33.3579843 113.425934,33.7756947 C113.363724,34.1934051 113.301819,34.5224837 113.239304,34.7611754 C113.177399,34.999867 113.047185,35.3225103 112.850492,35.7314453 C112.653189,36.1389177 112.403739,36.4580508 112.103363,36.6862119 C111.802071,36.9158357 111.37697,37.1191331 110.827449,37.2981518 C110.277928,37.4774631 109.629298,37.56668 108.882779,37.56668 C105.624991,37.56668 103.996554,35.9549262 103.996554,32.7305412 L103.996554,23.2682888 C103.996554,20.0450738 105.594801,18.4318575 108.789464,18.4318575 Z M128.915293,17 L116.591931,17 C116.405302,17 116.249777,17.0702034 116.125357,17.2088552 C116.000022,17.348677 115.938117,17.5168728 115.938117,17.716075 C115.938117,17.9149847 116.000022,18.084643 116.125357,18.2238798 C116.249777,18.3634091 116.405302,18.4318575 116.591931,18.4318575 L122.006331,18.4318575 L122.006331,38.1634091 C122.006331,38.601888 122.266453,38.8206887 122.78487,38.8206887 C123.303286,38.8206887 123.562494,38.601888 123.562494,38.1634091 L123.562494,18.4318575 L128.915293,18.4318575 C129.351067,18.4318575 129.568802,18.1843904 129.568802,17.6868236 C129.568802,17.2293312 129.351067,17 128.915293,17 Z M144.551028,18.4318575 C144.737353,18.4318575 144.892878,18.3578513 145.018212,18.2086691 C145.142632,18.0594868 145.204842,17.8857333 145.204842,17.6868236 C145.204842,17.2293312 144.986498,17 144.551028,17 L133.472475,17 C132.973881,17 132.725346,17.2188007 132.725346,17.6564021 L132.725346,38.1634091 C132.725346,38.601888 132.973881,38.8206887 133.472475,38.8206887 L144.551028,38.8206887 C144.986498,38.8206887 145.204842,38.5919426 145.204842,38.1338652 C145.204842,37.9346629 145.142632,37.7600319 145.018212,37.6120197 C144.892878,37.4619598 144.737353,37.3876612 144.551028,37.3876612 L134.282119,37.3876612 L134.282119,28.5818109 L139.229029,28.5818109 C139.665109,28.5818109 139.883148,28.3630102 139.883148,27.9254089 C139.883148,27.7267917 139.820633,27.5568408 139.696213,27.417604 C139.572099,27.2780747 139.415659,27.2084563 139.229029,27.2084563 L134.282119,27.2084563 L134.282119,18.4318575 L144.551028,18.4318575 Z M156.927756,28.4917165 C160.308439,28.0342242 162,26.1337588 162,22.791198 C162,20.7412578 161.392843,19.2637681 160.17914,18.3578513 C158.965741,17.4528121 157.383962,17 155.433802,17 L150.112718,17 C149.904437,17 149.739154,17.0596729 149.614124,17.1787262 C149.489704,17.2980721 149.427494,17.4475469 149.427494,17.6271506 L149.427494,38.1634091 C149.427494,38.601888 149.687007,38.8206887 150.205118,38.8206887 C150.723839,38.8206887 150.983657,38.601888 150.983657,38.1634091 L150.983657,28.6417764 L155.309382,28.6417764 L160.194997,37.8056641 C160.588993,38.5027257 160.911021,38.8499402 161.160166,38.8499402 C161.409006,38.8499402 161.610578,38.7756415 161.766408,38.6264592 C161.922543,38.477277 162,38.3035235 162,38.1040287 C162,37.9846829 161.968895,37.8653371 161.906685,37.7459912 L156.927756,28.4917165 Z M150.983657,27.2684218 L150.983657,18.4318575 L155.433802,18.4318575 C158.773622,18.43215 160.443532,19.895014 160.443532,22.8207419 C160.443532,25.7865443 158.773622,27.2684218 155.433802,27.2684218 L150.983657,27.2684218 Z M82.5966415,17.224651 C82.3365186,17.0748837 82.0300432,17.000585 81.6775202,17.000585 C81.3249973,17.000585 81.0188268,17.0748837 80.7602286,17.224651 C80.5007156,17.3732482 80.3714166,17.5876612 80.3714166,17.8658423 L80.3714166,33.1198777 L72.6232301,18.5827948 C72.3320022,18.0258476 72.0358951,17.6227629 71.7358237,17.3732482 C71.4342275,17.1251961 71.0667619,17.000585 70.6300726,17.000585 C69.7594384,17.000585 69.3239689,17.2890041 69.3239689,17.8658423 L69.3014026,33.1198777 L61.5532161,18.5827948 C61.2622932,18.0258476 60.9661861,17.6227629 60.6664196,17.3732482 C60.3648234,17.1251961 59.9970529,17.000585 59.5609734,17.000585 C58.6897294,17.000585 58.2539549,17.2890041 58.2539549,17.8658423 L58.2539549,37.925595 C58.2539549,38.2040686 58.383254,38.4228693 58.6436818,38.5819971 C58.90228,38.7420024 59.2081455,38.8206887 59.5609734,38.8206887 C59.9134964,38.8206887 60.2196669,38.7420024 60.4794848,38.5819971 C60.738083,38.4228693 60.8682969,38.2040686 60.8682969,37.925595 L60.8682969,22.6721447 L68.9595529,37.6869033 C69.3950224,38.4427603 69.9442385,38.8206887 70.6081161,38.8206887 C70.9606391,38.8206887 71.2668096,38.7420024 71.5269325,38.5819971 C71.7855306,38.4228693 71.9160495,38.2040686 71.9160495,37.925595 L71.937701,22.6721447 L80.028957,37.6869033 C80.4644265,38.4427603 81.0139476,38.8206887 81.6775202,38.8206887 C82.0300432,38.8206887 82.3365186,38.7420024 82.5966415,38.5819971 C82.8549347,38.4228693 82.9857586,38.2040686 82.9857586,37.925595 L82.9857586,17.8658423 C82.9857586,17.5876612 82.8549347,17.3732482 82.5966415,17.224651 Z" id="Connecter-Logo" sketch:type="MSShapeGroup"></path>
            </g>
        </g>
    </g>
</svg>