<?xml version="1.0" encoding="UTF-8" standalone="no"?>
<svg width="51px" height="50px" viewBox="0 0 51 50" version="1.1" xmlns="http://www.w3.org/2000/svg" xmlns:xlink="http://www.w3.org/1999/xlink" xmlns:sketch="http://www.bohemiancoding.com/sketch/ns">
    <!-- Generator: Sketch 3.2.2 (9983) - http://www.bohemiancoding.com/sketch -->
    <title>google</title>
    <desc>Created with Sketch.</desc>
    <defs></defs>
    <g id="Page-1" stroke="none" stroke-width="1" fill="none" fill-rule="evenodd" sketch:type="MSPage">
        <g id="mobile_menu" sketch:type="MSArtboardGroup" transform="translate(-143.000000, -297.000000)">
            <g id="Menu" sketch:type="MSLayerGroup" transform="translate(0.000000, 132.000000)">
                <g id="social-network" transform="translate(25.000000, 165.000000)" sketch:type="MSShapeGroup">
                    <g id="google" transform="translate(118.672360, 0.000000)">
                        <ellipse id="Oval-41" fill="#4FC1E9" cx="25.0388199" cy="25" rx="25.0388199" ry="25"></ellipse>
                        <path d="M38.7169295,17.9266667 L35.1073009,17.9266667 L35.1073009,21.564 L33.2965257,21.564 L33.2965257,17.9266667 L29.6829233,17.9266667 L29.6829233,16.1066667 L33.2965257,16.1066667 L33.2965257,12.4653333 L35.1073009,12.4653333 L35.1073009,16.1066667 L38.7169295,16.1066667 L38.7169295,17.9266667" id="Fill-2" fill="#FFFFFF"></path>
                        <path d="M26.2521203,28.46 C25.2520214,27.5253333 23.0412067,26.4053333 22.9246388,24.916 C22.8133696,23.4506667 24.3433222,22.9426667 25.2083085,22.0466667 C25.8640025,21.372 26.6057977,20.24 26.7289887,18.9813333 C26.9660982,16.6826667 25.7911476,14.88 24.7314401,14.004 L26.4441923,14.004 C26.9329824,13.504 28.1887357,12.5413333 28.0628955,12.084 C25.0824682,12.236 22.1868175,11.88 19.5931835,12.084 C14.3145156,12.4973333 11.12877,17.9973333 14.2681534,22.0466667 C15.4126375,23.5186667 17.2538792,24.1186667 19.7892294,24.3426667 C19.0540573,25.5653333 19.8408901,27.388 20.3574975,27.8853333 C15.5927878,28.104 11.0930049,29.276 11.3195174,34.0173333 C11.3486593,34.556 11.5764964,35.4133333 11.7937365,35.8386667 C14.5476513,41.0493333 28.4682336,40.3213333 28.5397638,33.056 C28.560958,30.7253333 27.3542161,29.4866667 26.2521203,28.46 L26.2521203,28.46 Z M17.1253897,14.1906667 C17.4340295,13.88 17.9161964,13.648 18.4553226,13.5186667 C21.580135,12.8066667 23.6836543,16.4133333 23.6876282,19.4573333 C23.6876282,21.0906667 22.9074186,22.8226667 21.4052833,23.096 C17.345279,23.8373333 14.1330407,17.208 17.1253897,14.1906667 L17.1253897,14.1906667 Z M14.4602254,32.288 C15.0218704,30.296 16.6008345,29.2413333 19.4037608,28.9386667 C22.1099887,28.6506667 24.8162167,29.7413333 25.5911278,32.0013333 C28.1304518,39.404 12.4017436,39.5746667 14.4602254,32.288 L14.4602254,32.288 Z" id="Fill-3" fill="#FFFFFF"></path>
                    </g>
                </g>
            </g>
        </g>
    </g>
</svg>